<svg width="67" height="67" xmlns="http://www.w3.org/2000/svg" fill="none">

 <g>
  <title>Layer 1</title>
  <path id="svg_1" fill="#00A3FF" d="m8.375,11.167c0,-4.62539 3.7496,-8.37501 8.375,-8.37501l27.2393,0c2.2212,0 4.3514,0.88237 5.922,2.45298l6.2607,6.26073c1.5706,1.5706 2.453,3.7008 2.453,5.922l0,38.406c0,4.6253 -3.7496,8.375 -8.375,8.375l-33.5,0c-4.6254,0 -8.375,-3.7497 -8.375,-8.375l0,-44.6667z" opacity="0.25"/>
  <path id="svg_2" fill="#00A3FF" d="m41.875,5.28162c0,-1.37499 1.1146,-2.48963 2.4896,-2.48963l0,0c1.9809,0 3.8806,0.7869 5.2813,2.18758l6.7915,6.79153c1.4007,1.4007 2.1876,3.3004 2.1876,5.2813l0,0c0,1.375 -1.1146,2.4896 -2.4896,2.4896l-11.4687,0c-1.5418,0 -2.7917,-1.2499 -2.7917,-2.7917l0,-11.46868z"/>
  <path transform="rotate(180 33.4997 37.6875)" stroke="null" id="svg_3" fill="#00A3FF" d="m32.4311,25.3368c-0.3293,0.1363 -0.6378,0.3382 -0.9054,0.6059l-8.375,8.375c-1.0902,1.0902 -1.0902,2.8578 0,3.948c1.0902,1.0902 2.8578,1.0902 3.948,0l3.6093,-3.6094l0,12.802c0,1.5418 1.2499,2.7917 2.7917,2.7917c1.5418,0 2.7916,-1.2499 2.7916,-2.7917l0,-12.802l3.6094,3.6094c1.0902,1.0902 2.8578,1.0902 3.948,0c1.0902,-1.0902 1.0902,-2.8578 0,-3.948l-8.375,-8.375c-0.8226,-0.8226 -2.0307,-1.0245 -3.0426,-0.6059z"/>
 </g>
</svg>