<?xml version="1.0" standalone="no"?>
<!DOCTYPE svg PUBLIC "-//W3C//DTD SVG 20010904//EN"
 "http://www.w3.org/TR/2001/REC-SVG-20010904/DTD/svg10.dtd">
<svg version="1.0" xmlns="http://www.w3.org/2000/svg"
 width="596.000000pt" height="419.000000pt" viewBox="0 0 596.000000 419.000000"
 preserveAspectRatio="xMidYMid meet">

<g transform="translate(0.000000,419.000000) scale(0.100000,-0.100000)"
fill="#000000" stroke="none">
<path d="M1690 3731 c-29 -10 -492 -199 -594 -243 -38 -17 -96 -40 -130 -53
-166 -63 -215 -97 -259 -180 -20 -37 -22 -54 -21 -220 1 -193 17 -309 68 -491
86 -307 267 -602 487 -794 41 -36 76 -68 79 -71 13 -15 174 -122 250 -165 l85
-49 95 0 c88 0 100 2 158 33 81 41 222 138 293 200 301 263 505 616 584 1014
31 155 49 400 35 464 -22 99 -94 170 -230 229 -47 20 -98 43 -115 50 -16 7
-113 48 -215 90 -102 42 -194 80 -205 85 -216 95 -308 120 -365 101z m198
-110 c224 -90 509 -209 632 -263 160 -71 207 -110 230 -194 19 -66 -8 -332
-51 -514 -95 -405 -355 -783 -698 -1015 -167 -113 -248 -129 -363 -75 -64 31
-70 34 -148 84 -58 37 -170 127 -239 191 -263 246 -452 651 -491 1054 -29 298
-7 372 130 435 70 32 136 59 410 171 175 71 323 133 360 149 60 26 121 20 228
-23z"/>
<path d="M3755 3394 c-47 -17 -85 -51 -85 -75 0 -31 37 -42 116 -36 78 7 89 1
109 -63 4 -14 19 -34 33 -46 18 -15 26 -31 26 -56 1 -41 11 -40 46 5 21 27 25
42 25 102 0 60 -4 77 -25 108 -46 67 -155 94 -245 61z"/>
<path d="M3960 2960 c0 -25 -40 -412 -58 -559 l-7 -54 -29 129 c-16 71 -42
185 -57 254 -16 69 -32 142 -35 163 -8 48 -17 53 -52 29 -15 -10 -70 -35 -124
-56 l-96 -38 -12 -61 c-6 -34 -22 -120 -36 -192 -13 -71 -28 -149 -33 -173 -5
-25 -5 -59 0 -80 8 -32 41 -191 70 -332 5 -25 11 -55 14 -68 l6 -23 18 22 18
23 8 -25 c4 -13 16 -35 27 -48 10 -13 16 -32 13 -41 -3 -10 -1 -67 5 -126 6
-60 15 -167 21 -239 10 -126 17 -173 59 -415 11 -63 30 -171 41 -240 10 -69
21 -131 24 -137 3 -9 30 -13 85 -13 l81 0 -5 168 c-3 92 -8 316 -10 497 -5
364 -7 358 50 150 24 -89 29 -149 64 -832 0 -2 43 -3 95 -3 l95 0 0 153 c0 83
-5 354 -10 600 l-10 448 32 47 c25 36 33 59 35 102 1 30 7 75 12 100 6 25 20
91 32 146 l21 102 -21 118 c-69 391 -67 381 -92 389 -11 4 -69 33 -129 65 -61
32 -110 54 -110 50z m-340 -616 c10 -101 9 -115 -8 -160 l-20 -49 -12 45 c-6
25 -16 61 -22 81 -9 30 -6 53 12 123 13 48 27 83 31 79 4 -4 13 -58 19 -119z
m541 14 c10 -52 10 -154 -1 -188 l-7 -25 -13 30 c-17 41 -24 122 -15 191 8 65
22 62 36 -8z m-250 -200 c5 -24 12 -51 15 -60 4 -15 -1 -18 -34 -18 l-40 0 22
64 c11 35 23 62 24 61 2 -2 8 -23 13 -47z"/>
<path d="M3730 515 l0 -55 140 0 c77 0 140 2 140 5 0 3 -6 20 -14 39 -20 49
-66 66 -175 66 l-91 0 0 -55z"/>
<path d="M4030 516 l0 -56 135 0 c128 0 135 1 135 20 0 11 -13 34 -29 52 -29
32 -30 32 -135 36 l-106 4 0 -56z"/>
</g>
</svg>
