<svg width="30" height="25" viewBox="0 0 30 25" fill="none" xmlns="http://www.w3.org/2000/svg">
<path d="M0.2625 25V22.6562H5.1375C3.5375 21.4062 2.28125 19.9935 1.36875 18.418C0.45625 16.8424 0 14.9089 0 12.6172C0 10.013 0.7375 7.58464 2.2125 5.33203C3.6875 3.07943 5.7875 1.51042 8.5125 0.625V3.04687C6.7375 3.72396 5.25 4.9349 4.05 6.67969C2.85 8.42448 2.25 10.4036 2.25 12.6172C2.25 14.2839 2.59375 15.8138 3.28125 17.207C3.96875 18.6003 5.0875 19.8177 6.6375 20.8594V16.0156H8.8875V25H0.2625ZM16.5 25C15.25 25 14.1875 24.5443 13.3125 23.6328C12.4375 22.7214 12 21.6146 12 20.3125C12 19.0625 12.4125 17.9818 13.2375 17.0703C14.0625 16.1589 15.075 15.6771 16.275 15.625C16.7 14.6875 17.3312 13.9323 18.1687 13.3594C19.0062 12.7865 19.95 12.5 21 12.5C22.325 12.5 23.4688 12.9492 24.4313 13.8477C25.3938 14.7461 25.975 15.8594 26.175 17.1875H26.25C27.3 17.1875 28.1875 17.5781 28.9125 18.3594C29.6375 19.1406 30 20.0391 30 21.0547C30 22.1484 29.6375 23.0794 28.9125 23.8477C28.1875 24.6159 27.3 25 26.25 25H16.5ZM21.6 10.9375C21.325 9.60938 20.85 8.39193 20.175 7.28516C19.5 6.17839 18.6 5.13021 17.475 4.14062V8.98438H15.225V0H23.85V2.34375H18.9375C20.1625 3.41146 21.2438 4.72005 22.1813 6.26953C23.1188 7.81901 23.6875 9.375 23.8875 10.9375H21.6ZM16.5 22.6562H26.25C26.675 22.6562 27.0312 22.5065 27.3187 22.207C27.6062 21.9076 27.75 21.5365 27.75 21.0938C27.75 20.651 27.6062 20.2799 27.3187 19.9805C27.0312 19.681 26.675 19.5312 26.25 19.5312H24.375V18.3594C24.375 17.3698 24.05 16.5365 23.4 15.8594C22.75 15.1823 21.95 14.8438 21 14.8438C20.05 14.8438 19.25 15.1628 18.6 15.8008C17.95 16.4388 17.625 17.1615 17.625 17.9688H16.5C15.875 17.9688 15.3438 18.1966 14.9062 18.6523C14.4688 19.1081 14.25 19.6615 14.25 20.3125C14.25 20.9635 14.4688 21.5169 14.9062 21.9727C15.3438 22.4284 15.875 22.6562 16.5 22.6562Z" fill="white"/>
</svg>
